<svg width="34" height="23" viewBox="0 0 34 23" fill="none" xmlns="http://www.w3.org/2000/svg">
<path d="M18.0667 5H3.13333C1.95513 5 1 5.95513 1 7.13333V15.6667C1 16.8449 1.95513 17.8 3.13333 17.8H9L13.8 21.4L14.8667 17.8H18.0667C19.2449 17.8 20.2 16.8449 20.2 15.6667V7.13333C20.2 5.95513 19.2449 5 18.0667 5Z"  stroke="#1CABE2" stroke-width="2" stroke-linecap="round" stroke-linejoin="round"/>
<path d="M15.9331 1H30.8665C32.0447 1 32.9998 1.95513 32.9998 3.13333V11.6667C32.9998 12.8449 32.0447 13.8 30.8665 13.8H27.6665L26.5998 17.4L21.7998 13.8H15.9331C14.7549 13.8 13.7998 12.8449 13.7998 11.6667V3.13333C13.7998 1.95513 14.7549 1 15.9331 1Z" stroke="#1CABE2" stroke-width="2" stroke-linecap="round" stroke-linejoin="round"/>
<path d="M8.8335 11.7667L10.3002 13.2333L13.9668 9.56667" stroke="#1CABE2" stroke-width="1.5" stroke-linecap="round" stroke-linejoin="round"/>
<path d="M22.2002 9.6L26.6002 5.2M22.2002 5.2L26.6002 9.6" stroke="#1CABE2" stroke-width="1.5" stroke-linecap="round" stroke-linejoin="round"/>
</svg>
